PathFileType	4	(X/Y/Z)	 s03c0401.trc
DataRate	CameraRate	NumFrames	NumMarkers	Units	OrigDataRate	OrigDataStartFrame	OrigNumFrames
200	200	4	52	mm	200	751	2000
Frame#	Time	racr			lacr			c7			jug			rlel			rdr			llel			ldr			s2			lic			ric			lasi			rasi			rpsi			lpsi			rgt			lgt			rth1			rth2			rth3			rth4			rlfc			rmfc			rsh1			rsh2			rsh3			rsh4			rlmal			rmmal			rcal			rtoe			rmt5			rmt1			lth1			lth2			lth4			lth3			llfc			lmfc			lsh1			lsh2			lsh3			lsh4			llmal			lmmal			lcal			ltoe			lmt1			lmt5			SBIKE			LBIKE			RBIKE			
		X1	Y1	Z1	X2	Y2	Z2	X3	Y3	Z3	X4	Y4	Z4	X5	Y5	Z5	X6	Y6	Z6	X7	Y7	Z7	X8	Y8	Z8	X9	Y9	Z9	X10	Y10	Z10	X11	Y11	Z11	X12	Y12	Z12	X13	Y13	Z13	X14	Y14	Z14	X15	Y15	Z15	X16	Y16	Z16	X17	Y17	Z17	X18	Y18	Z18	X19	Y19	Z19	X20	Y20	Z20	X21	Y21	Z21	X22	Y22	Z22	X23	Y23	Z23	X24	Y24	Z24	X25	Y25	Z25	X26	Y26	Z26	X27	Y27	Z27	X28	Y28	Z28	X29	Y29	Z29	X30	Y30	Z30	X31	Y31	Z31	X32	Y32	Z32	X33	Y33	Z33	X34	Y34	Z34	X35	Y35	Z35	X36	Y36	Z36	X37	Y37	Z37	X38	Y38	Z38	X39	Y39	Z39	X40	Y40	Z40	X41	Y41	Z41	X42	Y42	Z42	X43	Y43	Z43	X44	Y44	Z44	X45	Y45	Z45	X46	Y46	Z46	X47	Y47	Z47	X48	Y48	Z48	X49	Y49	Z49	X50	Y50	Z50	X51	Y51	Z51	X52	Y52	Z52	
751	3.7550	769.238984	1483.514699	-74.891035	754.296341	1464.067363	-414.891234	696.654424	1571.492248	-246.543093	723.849516	1400.607173	-235.725238	637.987259	1233.221668	62.271564	755.343965	985.559820	0.320943	618.489185	1225.930730	-542.127181	738.332643	979.962169	-452.660825	184.730821	1267.089167	-220.715676	364.582084	1276.312556	-409.617811	355.933680	1311.106787	-47.117569	378.656241	1208.525161	-361.026945	388.632130	1240.939022	-85.486729	213.287815	1319.330459	-184.540134	215.860391	1314.317439	-271.933211	320.484076	1213.673585	-21.076035	277.797860	1151.068762	-409.227592	437.927413	1107.151469	-9.428430	522.351280	1078.782947	-16.451883	581.119234	1016.379346	-20.343846	538.006350	1107.660533	-32.350245	661.391881	915.872187	-47.195468	657.154049	896.945497	-174.714780	536.571492	810.046671	-22.458082	478.352266	746.940244	-38.433725	393.128862	718.203500	-37.126513	497.578726	727.116481	-64.594154	277.381296	651.854125	-53.772409	300.469162	650.530766	-143.718278	198.545786	659.440281	-90.030243	413.110952	437.185841	-123.725347	325.354865	505.707513	-44.140040	343.991262	504.621535	-157.976764	294.955507	1001.898186	-427.291478	323.254647	919.967427	-432.462274	359.661892	923.341143	-432.752540	308.147875	832.502262	-421.791267	342.258526	709.234203	-401.980969	346.897592	691.109809	-281.043990	259.389925	561.605430	-432.912599	248.949001	477.708487	-420.874742	194.870119	405.514288	-418.517884	280.946706	466.280944	-401.372220	139.813786	290.808962	-405.580045	176.136007	287.485863	-319.595561	68.789849	279.092323	-363.624325	336.520847	122.219013	-354.380026	253.993467	170.925844	-317.555746	222.234173	157.971472	-431.791752	-214.064882	946.591438	-231.877869	-6.158848	83.849928	-435.167778	-11.235284	81.100881	-34.877271	
752	3.7600	770.286160	1482.084693	-72.909597	755.332350	1464.754168	-412.249402	698.076497	1571.033758	-243.514494	724.039091	1400.096726	-233.761518	637.548132	1232.681579	64.333954	755.548974	985.764249	0.803744	619.762486	1227.242973	-540.606035	738.390026	979.764652	-453.532601	184.070055	1270.365030	-219.030786	363.320346	1279.754487	-408.507554	355.831175	1312.982115	-45.900351	377.079162	1211.643505	-360.572068	387.872934	1242.986904	-84.565982	212.327461	1322.397456	-182.346880	215.101258	1317.511225	-270.587834	320.431315	1216.451001	-20.467287	276.044024	1154.147979	-408.629162	438.154595	1110.139781	-9.909757	522.618616	1081.915870	-17.650130	581.477485	1019.638263	-22.261549	537.821821	1111.047218	-33.415191	662.686428	920.246344	-50.664531	658.046248	901.624170	-178.620099	540.194890	812.051306	-25.391703	484.163499	748.294864	-40.062802	397.949750	717.787965	-38.518752	499.523334	727.991678	-67.922934	282.984384	648.986374	-54.047044	305.386370	648.079698	-144.218316	203.609666	654.979568	-89.873660	422.837268	437.290747	-123.779133	333.847177	504.128316	-44.236309	352.268141	503.289443	-158.334095	294.587914	1005.179128	-427.120541	323.382031	923.413287	-432.809165	359.725619	927.037462	-433.118389	309.133747	836.233393	-422.591060	343.393349	712.229298	-403.934464	348.593843	694.295165	-282.840061	257.758900	566.160604	-434.323292	246.641891	482.186445	-421.926912	191.809174	410.543117	-418.882373	278.747130	470.391838	-402.971972	135.863127	296.610056	-405.555538	173.019400	292.440829	-320.666440	65.303873	287.230767	-363.068457	326.784093	120.180797	-352.134533	245.581631	170.997368	-314.968038	214.291156	161.016370	-431.587823	-214.097055	946.673640	-231.698803	-6.165299	83.940175	-435.149362	-11.256894	81.143547	-34.863644	
753	3.7650	771.451849	1480.269946	-70.949664	756.381314	1465.274765	-409.701097	699.551026	1570.280408	-240.256738	724.229139	1399.319299	-231.811728	637.012645	1232.277406	66.503459	755.739808	986.060955	1.132219	621.035951	1228.549186	-539.051132	738.456329	979.625818	-454.446202	183.273623	1273.601091	-217.158878	361.865410	1283.332517	-407.281358	355.749163	1314.839352	-44.613459	375.344133	1214.837512	-360.229558	387.014203	1245.048095	-83.608865	211.463649	1325.659801	-179.992270	214.231921	1320.812546	-268.805962	320.395515	1219.361661	-19.677305	274.267005	1157.356919	-407.984911	438.132371	1112.953245	-10.377176	522.520871	1084.850918	-18.848157	581.121105	1022.472640	-24.035705	537.345957	1114.150318	-34.496991	663.523504	924.284048	-54.328156	658.364225	906.006412	-182.551520	543.064312	813.593940	-28.206751	488.059549	748.739101	-42.318440	402.422854	716.754179	-39.893107	503.521399	728.701384	-70.294344	288.394912	646.010058	-53.895455	310.122166	644.949111	-144.646852	208.425322	649.713424	-89.720151	432.525670	437.191533	-123.953121	342.043578	502.104670	-44.235825	360.354850	501.414369	-158.515356	294.565744	1008.512475	-426.891971	324.154463	927.078007	-433.114080	360.404765	931.028109	-433.321387	310.775153	839.626261	-423.411141	345.663560	715.451435	-406.166849	351.326547	697.609231	-284.982229	257.170792	570.736521	-435.590254	245.223066	486.940787	-422.971030	189.600552	415.954209	-419.364390	277.488113	474.742970	-404.626541	132.652144	302.920399	-405.447384	170.236558	298.140353	-321.130759	62.644736	296.214508	-362.773125	317.667647	119.932735	-352.162906	238.137355	172.897229	-314.806498	206.703329	164.846065	-431.308046	-214.122634	946.754826	-231.539678	-6.196315	84.059485	-435.116655	-11.260617	81.208005	-34.848146	
754	3.7700	772.648186	1478.228659	-69.091609	757.522716	1465.553106	-406.984979	701.208445	1569.129243	-237.287159	724.355444	1398.247898	-230.140300	636.469167	1231.507424	68.663721	756.018511	986.391818	1.283101	622.253480	1229.777866	-537.602776	738.510021	979.508581	-455.310643	182.611492	1277.105845	-215.001972	360.288284	1286.955046	-406.126542	355.686624	1316.671764	-43.289840	373.452688	1218.040001	-359.758736	386.042763	1247.412770	-82.618687	210.742773	1328.959247	-177.636610	214.319869	1322.822643	-261.046341	320.284378	1222.279874	-18.872983	272.330576	1160.717204	-407.235932	437.773601	1115.687981	-10.746778	522.059212	1087.384697	-20.051528	580.024228	1025.000803	-25.483891	537.446750	1116.461648	-36.759167	663.100120	928.957202	-57.448697	656.641037	911.392825	-186.493874	545.365748	814.686673	-30.963080	491.574350	748.780824	-44.466004	406.533502	715.177151	-41.178830	507.044773	728.838548	-72.580668	293.452878	641.892912	-54.034447	314.458270	641.154880	-144.988027	213.437411	643.654775	-89.149103	441.811044	436.509578	-124.359090	350.176944	499.433252	-44.305487	368.228420	499.010876	-158.568430	294.829807	1011.799164	-426.598388	325.524780	930.875573	-433.490358	361.672776	935.252286	-433.561709	313.210191	843.193884	-424.964901	348.928110	718.854352	-408.656151	355.004826	701.045772	-287.520158	257.677930	575.528563	-436.982898	244.705283	491.925898	-424.248138	188.158759	421.712235	-419.919353	277.063858	479.238563	-406.250587	130.179173	309.706753	-405.545754	168.421568	303.799689	-322.963515	60.471562	305.477203	-362.196611	308.724897	120.118672	-352.039242	231.187072	175.606651	-314.612926	199.525502	169.118669	-430.890984	-214.124103	946.850035	-231.354112	-6.177706	84.147070	-435.069143	-11.240143	81.308784	-34.849399	
